<svg width="102" height="50" viewBox="0 0 102 50" fill="none" xmlns="http://www.w3.org/2000/svg">
<path d="M15.6259 15.3069C17.7266 15.3069 19.4713 16.2027 20.9651 17.336L24.7031 10.467C22.3201 8.86571 19.6124 8.11768 16.5531 8.11768C10.7144 8.11768 4.34263 11.6764 3.33928 18.0482C2.66739 22.2497 5.51171 24.4916 9.21381 25.1679L11.1421 25.5285C11.9954 25.7054 13.2765 25.8129 13.0637 27.0246C12.8868 28.234 11.2832 28.6259 10.3224 28.6259C8.0828 28.6259 6.15897 27.5218 4.62706 26.1623L4.1993 25.7704L0 33.3672C2.77713 34.8969 6.54866 35.8308 9.93049 35.8308C15.7334 35.8308 22.0693 32.664 23.1017 26.2564C23.8139 21.6988 21.1801 19.4927 17.1936 18.5678L15.057 18.0482C14.3448 17.8712 13.1712 17.7279 13.3123 16.7313C13.4915 15.6294 14.7815 15.3069 15.6259 15.3069Z" fill="white"/>
<path d="M101.703 17.8713C102.772 11.1077 98.0372 8.54331 91.9858 8.54331H80.2636L80.0822 8.52316C79.4877 8.43264 78.8825 8.44021 78.2905 8.54555C77.262 8.80625 76.2714 9.19843 75.3431 9.7124C75.1968 9.80579 75.0396 9.881 74.875 9.93636C74.4271 10.0483 74.0329 10.3149 73.6052 10.4851C73.1127 10.7092 72.64 10.9745 72.192 11.2779C71.8851 11.4638 71.5649 11.6206 71.2536 11.7952C70.8594 12.0192 70.4966 12.2969 70.0957 12.5052C69.6948 12.7135 69.2939 12.9688 68.902 13.2107C68.7026 13.3316 68.4899 13.4167 68.295 13.5444C67.8636 13.8478 67.4149 14.126 66.9513 14.3775C66.6265 14.5433 66.3376 14.765 65.9994 14.9173C65.7766 15.0421 65.5613 15.1797 65.3544 15.3294C65.1797 15.4346 65.1304 15.4122 65.117 15.1928C65.0588 14.6172 65.1394 14.0394 65.0386 13.4638C64.9535 12.9912 65.0386 12.5075 64.9826 12.0282C64.9688 11.6758 64.9726 11.323 64.9938 10.9711C64.9938 10.4492 64.911 9.92964 64.9244 9.40333C64.9574 9.19601 64.9657 8.98551 64.949 8.77624C64.8684 8.43357 64.949 8.10435 64.8841 7.75273C64.8012 7.24657 64.8415 6.72698 64.7743 6.21187C64.7139 5.76394 64.7004 5.29138 64.64 4.83226C64.5325 4.03047 64.4451 3.22421 64.3018 2.4269C64.2323 2.0484 64.0778 1.69678 63.9837 1.33172C63.9264 1.053 63.7774 0.801489 63.5605 0.617284C63.2572 0.380229 62.9017 0.218988 62.5235 0.146963C61.5488 -0.016681 60.5561 -0.0438171 59.5739 0.0663361C59.1671 0.107591 58.7678 0.204034 58.3869 0.353008C58.2503 0.408999 58.0689 0.45827 58.0376 0.610565C57.9614 0.984582 57.7464 1.29589 57.6187 1.64303C57.4485 2.09096 57.1887 2.51425 57.0633 2.98681C56.9894 3.26452 56.8393 3.52432 56.7453 3.79755C56.54 4.28572 56.3628 4.78523 56.2145 5.29362C56.1428 5.57133 56.0443 5.84009 55.9659 6.1178C55.8584 6.49854 55.7755 6.88823 55.6523 7.26673C55.5121 7.66434 55.4006 8.0715 55.3186 8.48508C55.2836 8.67005 55.2341 8.85201 55.1708 9.02931C55.0096 9.51531 54.9155 10.0215 54.7968 10.5209C54.6669 11.0786 54.6221 11.6654 54.4161 12.1917C54.2324 12.6642 54.2078 13.1592 54.06 13.6295C53.948 13.9923 53.8942 14.3708 53.8136 14.7493C53.7173 15.1972 53.6277 15.6452 53.5225 16.0752C53.4284 16.4626 53.3455 16.8501 53.2649 17.2398C53.1372 17.8445 52.9805 18.4447 52.817 19.0427C52.6938 19.5152 52.5505 19.9833 52.4183 20.4536C52.3064 20.8523 52.21 21.2554 52.0913 21.6518C51.957 22.0998 51.78 22.5253 51.6636 22.9732C51.637 23.1031 51.581 23.2251 51.4998 23.33C51.4187 23.4348 51.3146 23.5196 51.1955 23.5779C50.929 23.7078 50.6513 23.8153 50.378 23.9295C49.8786 24.1535 49.3971 24.3976 48.8999 24.6149C48.2504 24.8993 47.5987 25.186 46.9581 25.5107C46.3579 25.8041 45.7443 26.0729 45.1463 26.3752C44.7611 26.57 44.3915 26.8231 43.9615 26.8926C43.3747 26.9889 42.7745 26.9844 42.1944 27.1546C41.7912 27.2503 41.3953 27.3746 41.0097 27.5264C40.3985 27.7959 39.842 28.1754 39.368 28.6462L41.1597 17.3562H46.5348L47.8965 8.56347H27.404L26.04 17.3562H31.4151L28.5417 35.383H38.2975L39.1015 30.3281C39.2045 30.3169 39.3098 30.3057 39.4128 30.2878C41.2814 30.0111 43.1678 29.8726 45.0567 29.8735C45.8921 29.8623 46.7297 29.8354 47.5695 29.8735C48.0175 29.8937 48.4654 29.9407 48.9133 29.925C48.8187 30.1898 48.6971 30.4443 48.5505 30.6842C48.2549 31.3248 47.9727 31.972 47.6546 32.6014C47.1418 33.607 46.6199 34.617 46.069 35.5957C45.4822 36.6461 44.8663 37.6831 44.2459 38.7155C43.8339 39.3874 43.3971 40.0593 42.9649 40.7312C42.7409 41.0873 42.4878 41.4322 42.2639 41.7928C42.1407 41.9921 42.2236 42.1153 42.4565 42.0996C42.6139 42.0873 42.7699 42.0603 42.9223 42.019C43.7734 41.795 44.3176 41.1657 44.8439 40.5341C45.5158 39.7346 46.1519 38.9193 46.7364 38.0705C47.3209 37.2217 47.9055 36.393 48.4699 35.542C48.9626 34.8029 49.4217 34.0414 49.9032 33.3024C50.2347 32.785 50.5886 32.2833 50.92 31.7637C51.2089 31.3158 51.4777 30.8433 51.7554 30.3819C51.771 30.3439 51.7983 30.3119 51.8334 30.2906C51.8684 30.2692 51.9094 30.2596 51.9503 30.2632C52.5912 30.2897 53.2284 30.3744 53.8539 30.5163C54.4049 30.6596 54.9737 30.7044 55.5202 30.8164C56.3265 30.9754 57.1395 31.1254 57.9323 31.3248C58.8573 31.5487 59.7957 31.7481 60.7161 31.9967C61.8113 32.3057 62.9289 32.5409 64.0196 32.8724C64.1225 32.9025 64.2175 32.9551 64.2976 33.0264C64.3778 33.0976 64.4412 33.1858 64.4832 33.2844C64.7727 33.8939 65.1113 34.4789 65.4955 35.0336C65.8561 35.5599 66.1965 36.0974 66.5683 36.6148C66.7922 36.9171 66.9669 37.2396 67.1842 37.5397C67.5179 37.9989 67.9009 38.4221 68.2346 38.8835C68.5324 39.2934 68.9624 39.533 69.3656 39.7928C69.8187 40.0589 70.3192 40.2346 70.8392 40.3101C71.6012 40.4503 72.3768 40.5014 73.1505 40.4624C73.1925 40.4649 73.2346 40.4588 73.2741 40.4445C73.3137 40.4302 73.35 40.4081 73.3807 40.3794C73.4115 40.3507 73.4361 40.3161 73.4531 40.2776C73.4702 40.2392 73.4792 40.1977 73.4798 40.1556C73.4798 40.0392 73.5134 39.9316 73.5156 39.8085C73.563 38.9855 73.5239 38.1598 73.3991 37.3449C73.3104 36.8012 73.1437 36.2732 72.9042 35.7771C72.6023 35.2049 72.238 34.6679 71.818 34.1758C71.5828 33.8981 71.4843 33.5263 71.2133 33.28C70.9907 33.0282 70.7934 32.7551 70.6242 32.4647C70.3443 32.0616 70.1315 31.6092 69.8471 31.2106C69.5509 30.801 69.2966 30.3629 69.0879 29.9026C69.0226 29.6881 68.9277 29.4838 68.8057 29.2957C68.4137 28.8298 68.2771 28.2386 67.9994 27.7279C67.7217 27.2173 67.5739 26.5902 67.3051 26.0437C67.1819 25.7907 67.2043 25.504 67.0812 25.2532C66.9923 25.1044 66.9231 24.9448 66.8751 24.7784C66.8191 24.4581 66.678 24.1602 66.6511 23.8399C66.6265 23.616 66.4563 23.4615 66.416 23.2442C66.334 22.7068 66.2157 22.1755 66.0621 21.6541C66.0476 21.6203 66.0462 21.5822 66.0582 21.5474C66.0702 21.5126 66.0948 21.4836 66.1271 21.4659C66.3821 21.2732 66.6569 21.108 66.9468 20.9732C67.3947 20.7493 67.8135 20.4357 68.2614 20.1961C68.8639 19.8713 69.4238 19.4637 70.024 19.1278C70.4272 18.9038 70.8168 18.6507 71.2267 18.4313C71.7284 18.1647 72.2144 17.8646 72.7071 17.578C72.9982 17.4077 73.2827 17.2196 73.5828 17.0696C73.9241 16.8857 74.2499 16.6745 74.557 16.438C74.8482 16.2275 75.202 16.1312 75.5089 15.9251C76.0307 15.578 76.5861 15.2756 77.1012 14.915C77.4461 14.6754 77.7955 14.4402 78.1315 14.1872C78.5794 13.8535 78.9982 13.4974 79.4416 13.1659L79.4775 13.1368L75.9657 35.383H85.5065L87.016 25.7727L89.9567 35.383H101.204L95.9118 25.7727C99.7214 24.5633 101.063 21.9295 101.703 17.8713ZM56.7341 20.0863C57.0051 19.6653 57.07 19.1905 57.182 18.7157C57.2626 18.3282 57.3724 17.9453 57.4866 17.5645C57.5874 17.2241 57.6568 16.868 57.7845 16.5455C58.0084 15.9945 58.1159 15.4257 58.3041 14.8613C58.4407 14.4537 58.528 14.0282 58.6781 13.6273C58.7661 13.3912 58.8408 13.1505 58.902 12.9061C59.0028 12.5276 59.173 12.1827 59.3029 11.8109C59.3029 12.1469 59.3433 12.4828 59.3321 12.8098C59.3029 13.569 59.444 14.3148 59.4037 15.0696C59.388 15.3607 59.5135 15.6474 59.5135 15.9453C59.5135 16.5858 59.6344 17.2174 59.677 17.8534C59.6926 18.0774 59.7441 18.2879 59.7665 18.5052C59.7957 18.7694 59.5426 18.8501 59.397 18.9531C58.9692 19.233 58.5146 19.4727 58.0756 19.7347C57.7333 19.9179 57.4041 20.1244 57.0902 20.3529C56.9625 20.4559 56.7587 20.5925 56.6423 20.5029C56.5258 20.4133 56.6624 20.2073 56.7341 20.0863ZM63.1708 30.7447C63.1282 30.8074 63.0677 30.7671 63.014 30.7447C62.1741 30.4222 61.3231 30.14 60.4653 29.8735C59.2895 29.5107 58.1316 29.0986 56.9357 28.8052C55.7397 28.5118 54.602 28.196 53.4351 27.9093C53.2649 27.8646 53.2963 27.8086 53.3769 27.7145C53.4588 27.6294 53.5668 27.5742 53.6837 27.5577C54.6182 27.2982 55.5341 26.9757 56.425 26.5924C57.1395 26.3125 57.8427 25.99 58.5325 25.6384C58.8371 25.4838 59.1708 25.3383 59.4933 25.1904C59.9438 25.0113 60.3746 24.7862 60.7788 24.5186C60.7976 24.5075 60.817 24.4978 60.8371 24.4894C60.8678 24.49 60.8973 24.5013 60.9206 24.5214C60.9439 24.5414 60.9595 24.5689 60.9647 24.5992C61.006 24.6969 61.0412 24.7972 61.07 24.8993C61.1125 25.3629 61.3701 25.7593 61.4642 26.1938C61.5582 26.6283 61.7396 27.0404 61.8561 27.4704C62.0317 28.0118 62.2381 28.5427 62.4742 29.0605C62.64 29.4771 62.8102 29.8914 62.9714 30.3102C63.0171 30.407 63.0718 30.4993 63.1349 30.5857C63.1573 30.6305 63.2066 30.6798 63.1708 30.7447ZM91.0541 17.6899C90.8301 19.1121 89.6566 19.2913 88.5144 19.2913H88.0306L88.539 16.0393H89.0743C90.268 16.0438 91.2825 16.2207 91.0541 17.6899Z" fill="white"/>
<path d="M47.2567 44.3234C46.9924 44.9035 46.6609 45.4432 46.4526 46.0524C46.3236 46.3478 46.2945 46.6773 46.3698 46.9908C46.3963 47.0681 46.4402 47.1384 46.498 47.1962C46.5559 47.254 46.6261 47.2979 46.7035 47.3245C46.8633 47.3682 47.0311 47.3745 47.1938 47.343C47.3565 47.3116 47.5098 47.2432 47.6419 47.1431C47.8634 46.9851 48.0637 46.7992 48.2376 46.5899C48.2936 46.5227 48.307 46.4801 48.3339 46.4533C48.3338 46.4423 48.3364 46.4314 48.3415 46.4216C48.3466 46.4119 48.354 46.4035 48.363 46.3973L49.0931 44.7892L49.2589 44.4287C49.2942 44.3585 49.345 44.2972 49.4075 44.2495C49.47 44.2018 49.5424 44.1688 49.6195 44.1532H49.6329C49.6329 44.1532 49.7986 44.1935 49.7852 44.2898C49.7672 44.3627 49.7393 44.4328 49.7023 44.4981C49.494 44.9124 49.3149 45.3267 49.12 45.7433C49.0103 45.9919 48.8961 46.2539 48.7751 46.5025C48.7326 46.5854 48.7057 46.6145 48.6923 46.6548C48.6788 46.6952 48.6788 46.6974 48.6631 46.6974C48.484 47.1117 48.3182 47.5417 48.1099 47.9269C47.8399 48.4742 47.441 48.9476 46.9475 49.3065C46.454 49.6655 45.8806 49.8991 45.2768 49.9874C44.9812 50.0305 44.6802 49.9618 44.4325 49.7948C44.3631 49.7254 44.2533 49.6425 44.2668 49.5328C44.2778 49.4386 44.3184 49.3503 44.3828 49.2807C44.4472 49.211 44.532 49.1636 44.6251 49.1453C44.6694 49.1395 44.7145 49.1426 44.7576 49.1546C44.8006 49.1665 44.8409 49.1869 44.8759 49.2147C45.0249 49.3195 45.1877 49.4032 45.3597 49.4633C45.5209 49.5183 45.6957 49.5183 45.8569 49.4633C46.4371 49.2923 46.9403 48.9259 47.2813 48.4264C47.5088 48.0902 47.7123 47.7385 47.8905 47.3738C47.7101 47.5217 47.5095 47.6431 47.2947 47.7343C47.1255 47.7991 46.9433 47.823 46.7631 47.8039C46.5829 47.7848 46.4097 47.7234 46.2578 47.6246C46.1202 47.5424 46.0053 47.4274 45.9232 47.2898C45.8411 47.1522 45.7944 46.9963 45.7875 46.8362C45.8391 46.3001 46.0147 45.7833 46.3003 45.3267C46.4504 45.0513 46.5624 44.7601 46.7147 44.4846C46.7601 44.3771 46.832 44.2827 46.9236 44.2103C47.0152 44.1379 47.1236 44.0897 47.2387 44.0703C47.2642 44.107 47.2793 44.1499 47.2824 44.1944C47.2856 44.2389 47.2767 44.2835 47.2567 44.3234Z" fill="white"/>
<path d="M52.0941 44.0884C52.121 44.0884 52.1344 44.1018 52.1904 44.1287C53.1445 44.2272 53.2699 45.4725 52.8265 46.272C52.439 47.1298 51.3618 47.8621 50.2823 47.6561C49.2856 47.4209 49.2722 46.3123 49.6731 45.5262C49.9865 44.9342 50.5096 44.4805 51.14 44.2541L51.1266 44.2272C51.14 44.2272 51.14 44.2272 51.1535 44.2116L51.1669 44.2407C51.3629 44.1508 51.5742 44.0991 51.7895 44.0884H52.0941ZM50.766 44.9305C50.2957 45.2351 49.8119 45.8868 49.8948 46.5363C49.9008 46.6757 49.946 46.8107 50.0252 46.9256C50.1044 47.0405 50.2145 47.1307 50.3427 47.1858C50.7907 47.3784 51.3528 47.1164 51.7246 46.8543C52.2083 46.5497 52.6943 45.8442 52.5958 45.1253C52.5882 45.0102 52.5496 44.8993 52.4842 44.8043C52.4187 44.7093 52.3289 44.6337 52.224 44.5856C52.1079 44.5463 51.986 44.5274 51.8634 44.5296C51.4669 44.5557 51.086 44.6948 50.766 44.9305Z" fill="white"/>
<path d="M54.763 44.2677C54.7629 44.3523 54.7485 44.4364 54.7204 44.5163C54.5681 44.8634 54.3621 45.1881 54.2232 45.5532C54.0878 45.8305 53.9725 46.1171 53.8783 46.411C53.8372 46.533 53.8256 46.6631 53.8447 46.7904C53.8638 46.9178 53.9129 47.0387 53.9881 47.1433C54.0622 47.2357 54.1639 47.3019 54.2784 47.3321C54.3929 47.3624 54.5141 47.3551 54.6241 47.3113C54.9956 47.1676 55.3273 46.9373 55.5917 46.6394C56.1448 45.9899 56.4875 45.2016 56.8772 44.4535C56.8929 44.4132 56.9198 44.3707 56.9332 44.3304C56.9757 44.2341 57.0295 44.1781 57.128 44.1781C57.1563 44.1761 57.1847 44.1807 57.2109 44.1915C57.3341 44.2184 57.3475 44.3304 57.2938 44.4535C57.0855 44.9239 56.8458 45.3942 56.6577 45.8936C56.6017 46.0594 56.5189 46.2116 56.4629 46.3639C56.416 46.512 56.4107 46.67 56.4474 46.8208C56.4841 46.9717 56.5615 47.1096 56.6712 47.2195C56.7503 47.2822 56.8458 47.3208 56.9462 47.3307C57.0467 47.3406 57.1479 47.3215 57.2378 47.2755C57.4757 47.1578 57.684 46.9878 57.847 46.7783C57.9298 46.6529 57.9836 46.57 57.9993 46.5969C58.0149 46.6237 58.0127 46.626 58.0261 46.626C58.0396 46.626 58.0261 46.6394 58.0396 46.6529C58.0664 46.7223 58.165 46.7783 58.165 46.8611C58.1574 46.9476 58.1338 47.0319 58.0956 47.1097C57.9789 47.2554 57.8442 47.3856 57.6947 47.4972C57.537 47.6166 57.3544 47.6988 57.1604 47.7376C56.9665 47.7764 56.7663 47.7708 56.5749 47.7212C56.3776 47.6436 56.2017 47.52 56.062 47.3606C55.9791 47.2777 55.9231 47.1254 55.7708 47.1254C55.5222 47.1389 55.3431 47.3337 55.1504 47.4703C55.0408 47.5639 54.9137 47.6347 54.7764 47.6786C54.6294 47.7395 54.47 47.765 54.3113 47.7529C54.1525 47.7409 53.9988 47.6916 53.8627 47.6092C53.7243 47.541 53.6065 47.4373 53.5215 47.3086C53.4365 47.1799 53.3873 47.0308 53.3789 46.8768C53.4021 46.3996 53.5396 45.9349 53.7798 45.5218C53.9746 45.1613 54.1269 44.7738 54.333 44.4289C54.3816 44.3321 54.4602 44.2536 54.557 44.2049C54.6645 44.1288 54.763 44.1848 54.763 44.2677Z" fill="white"/>
<path d="M61.1413 44.3236C61.2959 44.469 61.4074 44.6543 61.4635 44.859C61.5196 45.0637 61.5181 45.2799 61.4593 45.4838C61.4477 45.5021 61.4314 45.5169 61.4121 45.5268C61.3928 45.5366 61.3712 45.5411 61.3495 45.5398C61.2532 45.5398 61.1972 45.5263 61.1144 45.5263C61.1144 45.5263 61.0181 45.4569 61.0315 45.4166C61.0449 45.3763 61.0449 45.374 61.0315 45.374L61.0584 45.2217C61.0798 45.1209 61.0759 45.0164 61.0469 44.9175C61.018 44.8186 60.965 44.7285 60.8927 44.6551C60.8326 44.6013 60.761 44.562 60.6833 44.5402C60.6056 44.5185 60.524 44.5149 60.4447 44.5297C60.1547 44.5695 59.8816 44.6898 59.6564 44.8768C59.2652 45.1984 58.9526 45.6052 58.7426 46.0661C58.438 46.5633 58.232 47.1299 57.9408 47.6338C57.9297 47.6729 57.9062 47.7073 57.874 47.7319C57.8417 47.7565 57.8023 47.77 57.7617 47.7704C57.7164 47.7748 57.6707 47.7697 57.6275 47.7554C57.5843 47.7412 57.5446 47.7181 57.5108 47.6876C57.4885 47.6492 57.4781 47.6051 57.4809 47.5609C57.4837 47.5166 57.4996 47.4742 57.5265 47.439C57.9274 46.6237 58.3977 45.8488 58.7852 45.0336C58.8949 44.8096 58.9778 44.5342 59.1995 44.3819C59.2207 44.3639 59.2459 44.3513 59.2729 44.345C59.3 44.3387 59.3281 44.339 59.3551 44.3458C59.382 44.3526 59.4069 44.3657 59.4278 44.384C59.4486 44.4024 59.4648 44.4255 59.475 44.4513C59.5041 44.4804 59.5041 44.5767 59.5735 44.5767C59.6429 44.5767 59.6833 44.4804 59.7527 44.4513C59.9128 44.3455 60.084 44.2577 60.2633 44.1893C60.4097 44.153 60.5606 44.1386 60.7112 44.1467C60.8714 44.1512 61.0243 44.2142 61.1413 44.3236Z" fill="white"/>
<path d="M68.2198 44.0752C68.4684 44.102 68.717 44.1849 68.9656 44.2275C69.0472 44.2496 69.1319 44.2587 69.2164 44.2543L69.4404 44.158C69.4584 44.1453 69.4793 44.1373 69.5011 44.1345C69.523 44.1318 69.5452 44.1345 69.5658 44.1424C69.6755 44.1715 69.6755 44.2812 69.6352 44.3932C69.4695 44.821 69.2343 45.2353 69.0395 45.6653L68.7909 46.2454C68.7285 46.3715 68.6938 46.5094 68.6891 46.6501C68.6845 46.7907 68.71 46.9307 68.764 47.0606C68.7971 47.1125 68.8419 47.156 68.8948 47.1875C68.9477 47.219 69.0072 47.2376 69.0686 47.242C69.2371 47.2606 69.4075 47.2345 69.5627 47.1665C69.718 47.0985 69.8527 46.991 69.9533 46.8545C69.9555 46.8276 69.9639 46.8015 69.9778 46.7783C69.9917 46.755 70.0107 46.7353 70.0334 46.7206C70.0561 46.7059 70.0819 46.6966 70.1088 46.6934C70.1357 46.6902 70.1629 46.6932 70.1884 46.7022C70.2578 46.7426 70.2578 46.8545 70.2578 46.9262C70.2412 47.0514 70.1929 47.1703 70.1177 47.2717C70.0425 47.3732 69.9428 47.4539 69.8278 47.5063C69.7025 47.6033 69.5558 47.6689 69.4 47.6978C69.2442 47.7266 69.0837 47.7178 68.932 47.672C68.7683 47.6343 68.6184 47.5513 68.4996 47.4325C68.3808 47.3137 68.2978 47.1638 68.2601 47.0001C68.0518 47.1121 67.8435 47.2509 67.6375 47.3741C67.4852 47.4436 67.3329 47.5555 67.1672 47.6227C66.9996 47.6961 66.8172 47.7295 66.6345 47.7201C66.4518 47.7108 66.2738 47.6591 66.1145 47.569C65.9877 47.4733 65.8844 47.35 65.8126 47.2083C65.7408 47.0666 65.7024 46.9103 65.7002 46.7515C65.6979 46.0759 65.9501 45.4242 66.4066 44.9261C66.8631 44.4281 67.4905 44.1203 68.1638 44.064L68.2198 44.0752ZM68.1504 44.4761C67.8287 44.4898 67.5178 44.5955 67.2545 44.7806C66.7242 45.0908 66.3366 45.5966 66.175 46.1894C66.1148 46.4087 66.1101 46.6397 66.1616 46.8613C66.2002 46.9907 66.2813 47.1034 66.3918 47.181C66.5024 47.2586 66.6359 47.2967 66.7708 47.289C66.9968 47.2628 67.2142 47.1862 67.4068 47.0651C67.9785 46.6888 68.4149 46.1394 68.652 45.4973C68.747 45.3149 68.7762 45.1053 68.7349 44.9038C68.7139 44.7974 68.6588 44.7008 68.578 44.6284C68.4972 44.5561 68.395 44.5121 68.287 44.5029L68.1504 44.4761Z" fill="white"/>
<path d="M74.6496 42.4988C74.401 43.1057 74.1121 43.688 73.8343 44.2681C73.7184 44.5663 73.5845 44.8573 73.4335 45.1393C73.3506 45.2782 73.2946 45.4439 73.2095 45.5872C73.1266 45.7933 73.0303 45.9881 72.9475 46.1964C72.8873 46.3211 72.855 46.4574 72.8526 46.5958C72.8503 46.7343 72.8781 46.8716 72.934 46.9982C72.9629 47.0547 73.0064 47.1023 73.06 47.1362C73.1135 47.1701 73.1752 47.1889 73.2386 47.1908C73.4052 47.2102 73.574 47.1845 73.7272 47.1163C73.8805 47.0482 74.0126 46.9401 74.1098 46.8034C74.1214 46.7595 74.146 46.7201 74.1803 46.6905C74.2147 46.6609 74.2573 46.6425 74.3024 46.6376C74.3987 46.6511 74.4122 46.763 74.4278 46.8325C74.4167 46.9645 74.3711 47.0912 74.2957 47.2001C74.2202 47.3089 74.1175 47.3961 73.9978 47.4528C73.8714 47.5536 73.7221 47.6217 73.5631 47.651C73.4041 47.6803 73.2403 47.6699 73.0863 47.6208C72.9263 47.5798 72.7807 47.4953 72.6657 47.3768C72.5507 47.2582 72.4707 47.1101 72.4346 46.9489C72.1591 47.0878 71.9105 47.267 71.6328 47.3969C71.485 47.5045 71.3169 47.5809 71.1386 47.6214C70.9603 47.6618 70.7756 47.6654 70.5958 47.632C70.4601 47.6036 70.333 47.5435 70.2248 47.4567C70.1167 47.3699 70.0305 47.2589 69.9732 47.1326C69.8465 46.826 69.8222 46.4866 69.9038 46.1651C69.9892 45.7846 70.1509 45.4255 70.3792 45.1095C70.6075 44.7934 70.8976 44.527 71.2319 44.3263C71.5832 44.1181 71.9859 44.0126 72.3943 44.0217C72.6294 44.0486 72.8646 44.118 73.0998 44.1606C73.1814 44.1806 73.2645 44.194 73.3483 44.2009C73.4009 44.1955 73.4523 44.1819 73.5006 44.1606L73.9844 43.1505C74.0807 42.9422 74.1636 42.7228 74.2756 42.5145C74.3144 42.4434 74.3696 42.3825 74.4365 42.337C74.5035 42.2914 74.5804 42.2624 74.6608 42.2524C74.7056 42.2636 74.7056 42.3599 74.6496 42.4988ZM72.3136 44.4338C71.999 44.4444 71.6951 44.5506 71.4424 44.7384C70.908 45.0481 70.5158 45.5545 70.3495 46.1494C70.2946 46.3695 70.29 46.5991 70.336 46.8213C70.3772 46.9489 70.4585 47.0598 70.5679 47.1373C70.6773 47.2149 70.8089 47.2548 70.943 47.2513C71.1822 47.2161 71.4112 47.1306 71.6149 47.0004C72.1798 46.6206 72.6102 46.0719 72.8444 45.4327C72.9353 45.248 72.9599 45.0376 72.9139 44.837C72.8918 44.7282 72.833 44.6304 72.7474 44.5599C72.6617 44.4893 72.5545 44.4504 72.4435 44.4495L72.3136 44.4338Z" fill="white"/>
<path d="M75.4754 44.1421C75.5291 44.1421 75.5717 44.1421 75.5851 44.1981C75.5839 44.2898 75.5601 44.3798 75.5157 44.4601C75.2402 45.0984 74.8438 45.6785 74.7005 46.3414C74.6528 46.477 74.6344 46.6211 74.6463 46.7643C74.6583 46.9075 74.7004 47.0465 74.7699 47.1723C74.8441 47.2614 74.9417 47.3279 75.0518 47.3643C75.1618 47.4007 75.2799 47.4056 75.3925 47.3783C75.8003 47.2672 76.16 47.0248 76.416 46.6885C76.9536 46.0368 77.2313 45.2216 77.6053 44.4758C77.6369 44.4226 77.6646 44.3672 77.6881 44.3101C77.7028 44.2716 77.7269 44.2375 77.7582 44.2109C77.7895 44.1843 77.827 44.166 77.8673 44.1578C77.9371 44.1455 78.009 44.1549 78.0734 44.1846C78.0977 44.1965 78.1191 44.2135 78.1361 44.2345C78.1532 44.2556 78.1654 44.28 78.1721 44.3063C78.1787 44.3325 78.1795 44.3598 78.1744 44.3864C78.1694 44.413 78.1586 44.4381 78.1428 44.4601C78.033 44.7378 77.9076 44.9999 77.771 45.2776C77.7946 45.313 77.8224 45.3453 77.8539 45.3739C77.9095 45.423 77.9766 45.4575 78.0489 45.4744C78.1212 45.4912 78.1966 45.4897 78.2682 45.4702C78.5863 45.3809 78.8644 45.1858 79.0566 44.917C79.126 44.8476 79.1529 44.7244 79.2648 44.711C79.3219 44.7141 79.3756 44.7389 79.4149 44.7804C79.4364 44.8043 79.4506 44.8339 79.4557 44.8657C79.4609 44.8975 79.4568 44.93 79.444 44.9596C79.4709 44.9999 79.4306 45.029 79.4015 45.0559C79.3382 45.1411 79.2627 45.2166 79.1775 45.2798C78.9564 45.5306 78.6751 45.721 78.36 45.833C78.2268 45.8762 78.0842 45.8823 77.9478 45.8508C77.8113 45.8192 77.6859 45.7511 77.5851 45.6538L77.5717 45.6807C77.406 45.9853 77.2537 46.2899 77.0879 46.5766C76.7783 47.0797 76.3262 47.4796 75.7889 47.7255C75.6265 47.7985 75.4512 47.8384 75.2732 47.843C75.0952 47.8476 74.918 47.8168 74.752 47.7524C74.5963 47.6946 74.459 47.5962 74.3542 47.4675C74.2495 47.3387 74.1811 47.1842 74.1563 47.02C74.1359 46.4534 74.2748 45.8924 74.5572 45.4008C74.7094 45.0984 74.8483 44.7804 75.0275 44.4892C75.1238 44.3369 75.2514 44.1578 75.4552 44.1421H75.4754Z" fill="white"/>
<path d="M80.8318 44.0754C81.0993 44.0533 81.3665 44.121 81.591 44.268C81.8822 44.5032 81.9651 44.9041 81.9919 45.249C82.009 45.3374 82.008 45.4284 81.9892 45.5165C81.9703 45.6047 81.9339 45.6881 81.8822 45.7618C81.8688 45.7618 81.8553 45.7753 81.8396 45.7887C81.7619 45.8244 81.6762 45.8391 81.591 45.8313L79.3245 45.8447C79.2415 45.8313 79.1568 45.8313 79.0737 45.8447C79.0316 45.8522 78.9915 45.8684 78.956 45.8923C78.9205 45.9163 78.8904 45.9473 78.8677 45.9836C78.784 46.135 78.7548 46.3104 78.7848 46.4808C78.7966 46.6091 78.8393 46.7327 78.9091 46.8411C78.9788 46.9495 79.0737 47.0395 79.1857 47.1034C79.3403 47.1726 79.5082 47.2073 79.6776 47.205C79.8471 47.2027 80.014 47.1634 80.1666 47.0899C80.5195 46.9501 80.8363 46.7327 81.0938 46.4539C81.0938 46.4113 81.1207 46.4248 81.1342 46.4539C81.1476 46.483 81.2036 46.3845 81.2327 46.3979L81.273 46.4404L81.3156 46.4808C81.336 46.4972 81.3528 46.5178 81.3647 46.5413C81.3766 46.5647 81.3834 46.5903 81.3847 46.6166C81.386 46.6428 81.3817 46.669 81.3721 46.6935C81.3625 46.718 81.3478 46.7401 81.329 46.7585C81.2039 46.8962 81.0651 47.0208 80.9147 47.1302C80.441 47.4778 79.8505 47.6272 79.2686 47.5468C79.1255 47.5278 78.9883 47.4779 78.8665 47.4006C78.7446 47.3232 78.6411 47.2203 78.5631 47.0989C78.3987 46.789 78.3541 46.4295 78.4377 46.0888C78.5359 45.5452 78.826 45.0548 79.2551 44.707C79.6633 44.3466 80.1771 44.1282 80.7198 44.0844L80.8318 44.0754ZM80.4018 44.4763C79.9899 44.5933 79.6141 44.812 79.3089 45.1123C79.2838 45.1373 79.2649 45.1678 79.2539 45.2014C79.2429 45.2351 79.24 45.2708 79.2454 45.3058C79.2509 45.3408 79.2646 45.3739 79.2853 45.4026C79.3061 45.4313 79.3333 45.4546 79.3649 45.4707C80.0972 45.4841 80.8318 45.4707 81.5642 45.4841C81.6201 45.2156 81.5754 44.9358 81.4387 44.698C81.3672 44.6026 81.2724 44.527 81.1635 44.4784C81.0545 44.4298 80.935 44.4098 80.8161 44.4203C80.6765 44.4248 80.5376 44.4435 80.4018 44.4763Z" fill="white"/>
<path d="M85.4778 44.0883C85.6107 44.1981 85.7153 44.3382 85.7827 44.4968C85.8502 44.6555 85.8785 44.828 85.8652 44.9999C85.8115 45.4478 85.5898 45.8442 85.4778 46.272C85.3942 46.4881 85.3942 46.7277 85.4778 46.9438C85.523 47.0279 85.5913 47.0972 85.6746 47.1437C85.758 47.1901 85.8529 47.2117 85.9481 47.2059C86.2262 47.1521 86.4802 47.0118 86.6738 46.805C86.7566 46.7356 86.826 46.6527 86.8977 46.581C87.0097 46.431 87.1463 46.4444 87.162 46.6101C87.1719 46.7192 87.1526 46.829 87.106 46.9282C86.9887 47.1064 86.8363 47.2588 86.6581 47.3761C86.376 47.5854 86.027 47.6842 85.6771 47.6538C85.5332 47.6273 85.3987 47.5634 85.2871 47.4687C85.1755 47.374 85.0907 47.2518 85.0411 47.1141C84.9743 46.897 84.9519 46.6687 84.9754 46.4428C84.9989 46.2169 85.0677 45.9981 85.1777 45.7994C85.2762 45.4814 85.4554 45.1633 85.4285 44.8184C85.432 44.6925 85.3878 44.5699 85.3047 44.4753C85.2217 44.3806 85.1059 44.3208 84.9806 44.3078C84.6281 44.3087 84.2866 44.4305 84.0131 44.6527C83.6306 44.933 83.3299 45.3103 83.1419 45.7456L83.0299 45.9696C82.741 46.4399 82.582 46.9506 82.2975 47.4209C82.2836 47.4573 82.2591 47.4887 82.2272 47.5111C82.1953 47.5335 82.1573 47.5457 82.1184 47.5463C82.072 47.5511 82.0253 47.5447 81.982 47.5275C81.9387 47.5104 81.9002 47.483 81.8698 47.4478C81.8138 47.3783 81.8406 47.2955 81.8966 47.2126C82.2975 46.3974 82.7544 45.6225 83.1419 44.8072C83.2225 44.5622 83.3598 44.3396 83.5428 44.1578C83.5771 44.1275 83.6213 44.1108 83.6671 44.1108C83.7128 44.1108 83.757 44.1275 83.7914 44.1578C83.8473 44.1981 83.8473 44.2675 83.8877 44.3235C83.8903 44.3324 83.896 44.34 83.9039 44.345C83.9117 44.3499 83.9211 44.3518 83.9302 44.3504C84.0131 44.3369 84.0534 44.2675 84.1228 44.2115C84.2617 44.1286 84.3849 44.0592 84.5237 43.9875C84.6928 43.9296 84.8717 43.906 85.05 43.9181C85.2088 43.9199 85.3612 43.9805 85.4778 44.0883Z" fill="white"/>
<path d="M89.0057 42.7869C88.8668 43.1049 88.7437 43.423 88.5914 43.7276C88.5085 43.8933 88.4391 44.0747 88.3562 44.2539H88.9363C88.9642 44.2507 88.9925 44.2539 89.019 44.2631C89.0456 44.2723 89.0697 44.2873 89.0897 44.3071C89.1097 44.3268 89.125 44.3508 89.1345 44.3773C89.144 44.4037 89.1474 44.432 89.1446 44.4599V44.5719C89.1446 44.6122 89.1154 44.6122 89.0886 44.6122H88.7146C88.5917 44.632 88.4669 44.6372 88.3428 44.6279C88.2868 44.6413 88.2308 44.6122 88.1905 44.6279C88.1211 44.6973 88.1076 44.8071 88.0516 44.8899C87.8095 45.3191 87.615 45.7735 87.4716 46.2449C87.4263 46.3765 87.4103 46.5165 87.4246 46.6549C87.4389 46.7934 87.4832 46.9271 87.5544 47.0467C87.6365 47.1323 87.7402 47.1941 87.8545 47.2256C87.9688 47.2572 88.0896 47.2572 88.2039 47.2259C88.546 47.1395 88.8514 46.9456 89.0751 46.6727C89.1891 46.5605 89.2954 46.4408 89.3932 46.3143C89.4146 46.2902 89.4413 46.2715 89.4712 46.2595C89.5012 46.2475 89.5335 46.2426 89.5656 46.2452C89.5977 46.2478 89.6288 46.2578 89.6564 46.2745C89.684 46.2911 89.7074 46.314 89.7246 46.3412C89.7416 46.3569 89.7544 46.3766 89.7618 46.3985C89.7692 46.4204 89.7711 46.4438 89.7672 46.4666C89.7705 46.4915 89.7684 46.5167 89.761 46.5407C89.7537 46.5646 89.7413 46.5867 89.7246 46.6055C89.6972 46.6662 89.6601 46.7222 89.6149 46.7712C89.5835 46.8061 89.5454 46.8343 89.5029 46.8541C89.158 47.1587 88.831 47.5036 88.3965 47.6424C88.1834 47.7307 87.9468 47.7449 87.7246 47.6827C87.5072 47.6244 87.3133 47.5 87.1696 47.3267C87.026 47.1534 86.9398 46.9397 86.9229 46.7152C86.9229 46.1755 87.1715 45.6783 87.4066 45.208C87.4895 45.0288 87.5858 44.8474 87.6552 44.6548C87.6538 44.6446 87.6491 44.6351 87.6418 44.6279C87.5679 44.613 87.4917 44.613 87.4178 44.6279C87.3805 44.6306 87.3431 44.6252 87.3081 44.6122H87.1692C87.1413 44.6154 87.113 44.6122 87.0865 44.603C87.0599 44.5938 87.0358 44.5788 87.0158 44.559C86.9958 44.5393 86.9805 44.5153 86.971 44.4888C86.9615 44.4624 86.9581 44.4341 86.9609 44.4062C86.9609 44.3099 87.0304 44.2539 87.1692 44.2539H87.8747C88.0807 43.8261 88.2622 43.3961 88.4682 42.9818C88.5511 42.7869 88.7034 42.5674 88.9161 42.5518C88.9529 42.5775 88.9811 42.6136 88.9971 42.6556C89.013 42.6975 89.016 42.7433 89.0057 42.7869Z" fill="white"/>
<path d="M90.721 44.2677C90.7209 44.3523 90.7065 44.4364 90.6784 44.5163C90.5262 44.8634 90.3201 45.1881 90.1812 45.5532C90.0458 45.8305 89.9305 46.1171 89.8363 46.411C89.7952 46.533 89.7836 46.6631 89.8027 46.7904C89.8218 46.9178 89.8709 47.0387 89.9461 47.1433C90.0202 47.2357 90.1219 47.3019 90.2364 47.3321C90.3509 47.3624 90.4721 47.3551 90.5821 47.3113C90.9536 47.1676 91.2853 46.9373 91.5497 46.6394C92.1028 45.9899 92.4455 45.2016 92.8374 44.4535C92.8509 44.4132 92.8778 44.3707 92.8912 44.3304C92.9337 44.2341 92.9875 44.1781 93.086 44.1781C93.1143 44.1761 93.1427 44.1807 93.1689 44.1915C93.2921 44.2184 93.3055 44.3304 93.2518 44.4535C93.0435 44.9239 92.8038 45.3942 92.6157 45.8936C92.5597 46.0594 92.4769 46.2116 92.4209 46.3639C92.374 46.512 92.3687 46.67 92.4054 46.8208C92.4421 46.9717 92.5195 47.1096 92.6292 47.2195C92.7083 47.2822 92.8038 47.3208 92.9042 47.3307C93.0047 47.3406 93.1059 47.3215 93.1958 47.2755C93.4337 47.1578 93.642 46.9878 93.805 46.7783C93.8878 46.6529 93.9416 46.57 93.9573 46.5969C93.9729 46.6237 93.9707 46.626 93.9841 46.626C93.9976 46.626 93.9841 46.6394 93.9976 46.6529C94.0267 46.7223 94.123 46.7783 94.123 46.8611C94.1165 46.9478 94.0929 47.0323 94.0536 47.1097C93.9375 47.2559 93.8027 47.3862 93.6527 47.4972C93.495 47.6166 93.3124 47.6988 93.1184 47.7376C92.9245 47.7764 92.7243 47.7708 92.5329 47.7212C92.3356 47.6436 92.1597 47.52 92.02 47.3606C91.9371 47.2777 91.8811 47.1254 91.7311 47.1254C91.4802 47.1389 91.3011 47.3337 91.1085 47.4703C90.9988 47.5639 90.8717 47.6347 90.7344 47.6786C90.5874 47.7395 90.428 47.765 90.2693 47.7529C90.1105 47.7409 89.9568 47.6916 89.8207 47.6092C89.6823 47.541 89.5645 47.4373 89.4795 47.3086C89.3945 47.1799 89.3453 47.0308 89.3369 46.8768C89.3601 46.3996 89.4976 45.9349 89.7378 45.5218C89.9326 45.1613 90.0849 44.7738 90.291 44.4289C90.3396 44.3321 90.4182 44.2536 90.515 44.2049C90.6225 44.1288 90.721 44.1848 90.721 44.2677Z" fill="white"/>
<path d="M97.1105 44.3236C97.2242 44.4145 97.3156 44.5301 97.3777 44.6617C97.4398 44.7933 97.471 44.9374 97.4689 45.0829C97.483 45.2179 97.4693 45.3543 97.4286 45.4838C97.4163 45.5019 97.3995 45.5166 97.3799 45.5264C97.3603 45.5362 97.3385 45.5408 97.3166 45.5398C97.2203 45.5398 97.1643 45.5263 97.0926 45.5263C97.0926 45.5263 96.9963 45.4569 97.0097 45.4166C97.0232 45.3763 97.0232 45.374 97.0097 45.374L97.0389 45.2217C97.0598 45.1208 97.0554 45.0162 97.0261 44.9173C96.9968 44.8184 96.9435 44.7284 96.8709 44.6551C96.8108 44.6013 96.7392 44.562 96.6615 44.5402C96.5839 44.5185 96.5022 44.5149 96.423 44.5297C96.1329 44.5695 95.8598 44.6898 95.6346 44.8768C95.2434 45.1984 94.9309 45.6052 94.7208 46.0661C94.4163 46.5633 94.2102 47.1299 93.9191 47.6338C93.9079 47.6729 93.8845 47.7073 93.8522 47.7319C93.8199 47.7565 93.7805 47.77 93.7399 47.7704C93.6949 47.7751 93.6495 47.7701 93.6067 47.7558C93.5638 47.7415 93.5245 47.7182 93.4913 47.6876C93.4687 47.6494 93.4579 47.6055 93.4603 47.5612C93.4627 47.517 93.4781 47.4744 93.5047 47.439C93.9056 46.6237 94.3759 45.8488 94.7634 45.0336C94.8731 44.8096 94.956 44.5342 95.1777 44.3819C95.1989 44.3639 95.2241 44.3513 95.2512 44.345C95.2782 44.3387 95.3064 44.339 95.3333 44.3458C95.3602 44.3526 95.3852 44.3657 95.406 44.384C95.4269 44.4024 95.4431 44.4255 95.4532 44.4513C95.4823 44.4804 95.4823 44.5767 95.5518 44.5767C95.6212 44.5767 95.6615 44.4804 95.7309 44.4513C95.891 44.3455 96.0623 44.2577 96.2416 44.1893C96.3879 44.153 96.5389 44.1386 96.6895 44.1467C96.8462 44.1547 96.9951 44.2173 97.1105 44.3236Z" fill="white"/>
<path d="M100.041 44.0754C100.309 44.0533 100.576 44.121 100.801 44.268C101.092 44.5032 101.175 44.9041 101.201 45.249C101.219 45.3374 101.218 45.4284 101.199 45.5165C101.18 45.6047 101.143 45.6881 101.092 45.7618C101.078 45.7618 101.065 45.7753 101.051 45.7887C100.973 45.8244 100.886 45.8391 100.801 45.8313L98.5341 45.8447C98.4518 45.8312 98.3678 45.8312 98.2855 45.8447C98.2431 45.8522 98.2026 45.8684 98.1668 45.8923C98.1309 45.9162 98.1004 45.9473 98.0772 45.9836C97.9936 46.135 97.9644 46.3104 97.9943 46.4808C98.0062 46.6091 98.0488 46.7327 98.1186 46.8411C98.1884 46.9495 98.2833 47.0395 98.3952 47.1034C98.5499 47.1726 98.7178 47.2073 98.8872 47.205C99.0566 47.2027 99.2235 47.1634 99.3762 47.0899C99.729 46.9501 100.046 46.7327 100.303 46.4539C100.303 46.4113 100.33 46.4248 100.346 46.4539C100.362 46.483 100.413 46.3845 100.442 46.3979L100.483 46.4404L100.525 46.4808C100.546 46.4972 100.562 46.5178 100.574 46.5413C100.586 46.5647 100.593 46.5903 100.594 46.6166C100.596 46.6428 100.591 46.669 100.582 46.6935C100.572 46.718 100.557 46.7401 100.539 46.7585C100.413 46.8962 100.275 47.0208 100.124 47.1302C99.6505 47.4778 99.0601 47.6272 98.4781 47.5468C98.335 47.5278 98.1978 47.4779 98.076 47.4006C97.9542 47.3232 97.8507 47.2203 97.7726 47.0989C97.6088 46.7888 97.565 46.4292 97.6494 46.0888C97.7459 45.5451 98.0354 45.0544 98.4647 44.707C98.8731 44.347 99.3868 44.1287 99.9294 44.0844L100.041 44.0754ZM99.6113 44.4763C99.1999 44.5928 98.8247 44.8117 98.5207 45.1123C98.4955 45.1371 98.4765 45.1675 98.4653 45.201C98.4541 45.2346 98.451 45.2703 98.4562 45.3052C98.4615 45.3402 98.4749 45.3734 98.4955 45.4021C98.516 45.4309 98.5431 45.4544 98.5744 45.4707C99.3068 45.4841 100.041 45.4707 100.774 45.4841C100.832 45.2156 100.787 44.9351 100.648 44.698C100.577 44.6026 100.483 44.527 100.374 44.4783C100.266 44.4297 100.146 44.4097 100.028 44.4203C99.8875 44.4246 99.7479 44.4434 99.6113 44.4763Z" fill="white"/>
</svg>
