<svg width="70" height="34" viewBox="0 0 70 34" fill="none" xmlns="http://www.w3.org/2000/svg">
<path d="M11.1256 10.4087C12.5541 10.4087 13.7404 11.0178 14.7563 11.7884L17.298 7.11758C15.6776 6.02868 13.8364 5.52002 11.7561 5.52002C7.78575 5.52002 3.45298 7.93997 2.7707 12.2727C2.31382 15.1298 4.24796 16.6542 6.76538 17.1142L8.07663 17.3594C8.65687 17.4797 9.52799 17.5528 9.38332 18.3767C9.263 19.1991 8.17258 19.4656 7.51924 19.4656C5.99629 19.4656 4.68809 18.7148 3.6464 17.7904L3.35551 17.5238L0.5 22.6897C2.38845 23.7298 4.95308 24.3649 7.25272 24.3649C11.1987 24.3649 15.5071 22.2115 16.2091 17.8543C16.6934 14.7551 14.9025 13.255 12.1916 12.6261L10.7387 12.2727C10.2544 12.1524 9.45642 12.055 9.55236 11.3773C9.6742 10.628 10.5514 10.4087 11.1256 10.4087Z" fill="white"/>
<path d="M69.6581 12.1525C70.3845 7.55321 67.165 5.80944 63.05 5.80944H55.079L54.9556 5.79573C54.5514 5.73418 54.1398 5.73933 53.7372 5.81096C53.0379 5.98824 52.3643 6.25492 51.7331 6.60442C51.6335 6.66792 51.5267 6.71907 51.4148 6.75671C51.1102 6.83286 50.8421 7.01409 50.5513 7.12983C50.2164 7.28227 49.8949 7.46261 49.5903 7.66895C49.3816 7.79536 49.1639 7.90196 48.9522 8.02075C48.6841 8.17305 48.4374 8.36189 48.1648 8.50352C47.8922 8.64516 47.6196 8.81877 47.3531 8.98325C47.2175 9.06549 47.0729 9.12336 46.9404 9.21017C46.647 9.4165 46.3419 9.60566 46.0266 9.7767C45.8058 9.8894 45.6093 10.0402 45.3793 10.1437C45.2279 10.2286 45.0814 10.3222 44.9407 10.424C44.8219 10.4955 44.7884 10.4803 44.7793 10.3311C44.7397 9.93966 44.7945 9.54674 44.726 9.15534C44.6681 8.834 44.726 8.50505 44.6879 8.17914C44.6785 7.93955 44.6811 7.69964 44.6955 7.46031C44.6955 7.10546 44.6392 6.75214 44.6483 6.39425C44.6708 6.25327 44.6764 6.11013 44.6651 5.96783C44.6103 5.73482 44.6651 5.51094 44.6209 5.27184C44.5646 4.92766 44.592 4.57434 44.5463 4.22406C44.5052 3.91947 44.496 3.59813 44.4549 3.28593C44.3818 2.74071 44.3224 2.19246 44.225 1.65029C44.1777 1.39291 44.0727 1.15381 44.0087 0.90557C43.9697 0.716035 43.8684 0.545011 43.7209 0.419752C43.5146 0.258555 43.2729 0.148912 43.0157 0.0999343C42.353 -0.0113431 41.6779 -0.0297955 41.01 0.0451084C40.7334 0.0731617 40.4618 0.138743 40.2029 0.240045C40.11 0.278118 39.9866 0.311623 39.9653 0.415183C39.9135 0.669514 39.7673 0.881203 39.6805 1.11726C39.5648 1.42185 39.3881 1.70968 39.3028 2.03102C39.2526 2.21987 39.1505 2.39653 39.0866 2.58233C38.947 2.91428 38.8265 3.25395 38.7256 3.59965C38.6769 3.7885 38.6099 3.97125 38.5566 4.1601C38.4835 4.419 38.4271 4.68399 38.3434 4.94136C38.248 5.21174 38.1722 5.48861 38.1164 5.76984C38.0926 5.89562 38.059 6.01936 38.0159 6.13992C37.9063 6.4704 37.8423 6.81458 37.7616 7.1542C37.6733 7.53341 37.6428 7.93242 37.5027 8.29031C37.3778 8.61165 37.3611 8.94822 37.2605 9.26804C37.1844 9.51476 37.1479 9.77213 37.093 10.0295C37.0275 10.3341 36.9666 10.6387 36.895 10.9311C36.8311 11.1946 36.7747 11.458 36.7199 11.723C36.6331 12.1342 36.5265 12.5424 36.4153 12.949C36.3316 13.2703 36.2341 13.5886 36.1442 13.9084C36.0681 14.1795 36.0026 14.4537 35.9219 14.7232C35.8305 15.0278 35.7102 15.3172 35.631 15.6217C35.6129 15.7101 35.5748 15.7931 35.5197 15.8643C35.4645 15.9356 35.3937 15.9933 35.3127 16.0329C35.1315 16.1213 34.9426 16.1944 34.7568 16.272C34.4172 16.4243 34.0898 16.5903 33.7517 16.7381C33.31 16.9315 32.8669 17.1264 32.4313 17.3472C32.0232 17.5467 31.6059 17.7295 31.1992 17.9351C30.9373 18.0676 30.686 18.2397 30.3936 18.2869C29.9946 18.3524 29.5864 18.3493 29.192 18.4651C28.9178 18.5302 28.6486 18.6147 28.3864 18.7179C27.9707 18.9011 27.5923 19.1593 27.2701 19.4794L28.4884 11.8022H32.1435L33.0694 5.82315H19.1345L18.207 11.8022H21.8621L19.9082 24.0604H26.5421L27.0888 20.6231C27.1589 20.6155 27.2305 20.6079 27.3005 20.5957C28.5711 20.4075 29.8539 20.3133 31.1383 20.3139C31.7064 20.3063 32.276 20.288 32.8471 20.3139C33.1517 20.3276 33.4562 20.3596 33.7608 20.349C33.6965 20.529 33.6138 20.702 33.5141 20.8652C33.3131 21.3008 33.1212 21.7409 32.9049 22.1689C32.5562 22.8527 32.2013 23.5395 31.8267 24.205C31.4277 24.9193 31.0089 25.6244 30.587 26.3265C30.3068 26.7834 30.0098 27.2403 29.7159 27.6972C29.5636 27.9393 29.3915 28.1738 29.2392 28.419C29.1555 28.5546 29.2118 28.6383 29.3702 28.6277C29.4773 28.6193 29.5833 28.6009 29.687 28.5728C30.2657 28.4205 30.6358 27.9926 30.9936 27.5631C31.4505 27.0194 31.883 26.4651 32.2805 25.8879C32.678 25.3107 33.0755 24.7472 33.4593 24.1685C33.7943 23.6659 34.1065 23.1481 34.434 22.6456C34.6594 22.2938 34.9 21.9526 35.1254 21.5993C35.3218 21.2947 35.5046 20.9734 35.6934 20.6596C35.704 20.6338 35.7226 20.6121 35.7465 20.5976C35.7703 20.583 35.7981 20.5765 35.8259 20.5789C36.2618 20.5969 36.695 20.6545 37.1204 20.751C37.4951 20.8485 37.8819 20.8789 38.2535 20.9551C38.8018 21.0632 39.3546 21.1653 39.8937 21.3008C40.5227 21.4531 41.1608 21.5886 41.7867 21.7577C42.5314 21.9678 43.2914 22.1278 44.0331 22.3531C44.1031 22.3737 44.1676 22.4094 44.2221 22.4579C44.2767 22.5063 44.3197 22.5663 44.3483 22.6334C44.5452 23.0478 44.7754 23.4456 45.0367 23.8228C45.2819 24.1807 45.5134 24.5462 45.7662 24.898C45.9185 25.1036 46.0373 25.3229 46.185 25.527C46.4119 25.8392 46.6723 26.127 46.8992 26.4407C47.1018 26.7194 47.3942 26.8824 47.6683 27.059C47.9765 27.24 48.3168 27.3594 48.6704 27.4108C49.1885 27.5061 49.716 27.5409 50.2421 27.5144C50.2706 27.516 50.2992 27.5119 50.3261 27.5022C50.353 27.4925 50.3777 27.4774 50.3986 27.4579C50.4195 27.4384 50.4363 27.4149 50.4479 27.3887C50.4594 27.3626 50.4656 27.3344 50.466 27.3058C50.466 27.2266 50.4888 27.1535 50.4903 27.0697C50.5225 26.5101 50.496 25.9486 50.4111 25.3945C50.3508 25.0248 50.2374 24.6657 50.0746 24.3284C49.8693 23.9393 49.6216 23.5741 49.3359 23.2395C49.176 23.0507 49.109 22.7978 48.9248 22.6303C48.7734 22.4591 48.6393 22.2734 48.5242 22.076C48.3339 21.8018 48.1892 21.4942 47.9958 21.2231C47.7944 20.9447 47.6214 20.6467 47.4795 20.3337C47.4351 20.1879 47.3705 20.0489 47.2876 19.921C47.0211 19.6042 46.9282 19.2022 46.7393 18.855C46.5505 18.5077 46.45 18.0813 46.2672 17.7097C46.1835 17.5376 46.1987 17.3427 46.1149 17.1721C46.0545 17.071 46.0075 16.9624 45.9748 16.8492C45.9367 16.6315 45.8408 16.4289 45.8225 16.2111C45.8058 16.0588 45.69 15.9538 45.6626 15.806C45.6068 15.4406 45.5265 15.0793 45.422 14.7247C45.4121 14.7017 45.4111 14.6759 45.4193 14.6522C45.4275 14.6286 45.4442 14.6088 45.4662 14.5968C45.6396 14.4657 45.8264 14.3534 46.0236 14.2618C46.3281 14.1095 46.6129 13.8963 46.9175 13.7333C47.3272 13.5125 47.7079 13.2353 48.1161 13.0069C48.3902 12.8546 48.6552 12.6825 48.9339 12.5332C49.275 12.352 49.6055 12.1479 49.9406 11.953C50.1385 11.8372 50.3319 11.7093 50.536 11.6073C50.7681 11.4823 50.9897 11.3386 51.1985 11.1778C51.3965 11.0347 51.6371 10.9692 51.8458 10.8291C52.2006 10.593 52.5783 10.3874 52.9286 10.1422C53.1631 9.97925 53.4007 9.81935 53.6291 9.64725C53.9337 9.42033 54.2185 9.17819 54.52 8.95279L54.5444 8.93299L52.1564 24.0604H58.6442L59.6706 17.5254L61.6702 24.0604H69.3185L65.7197 17.5254C68.3103 16.703 69.2225 14.9121 69.6581 12.1525ZM39.0789 13.6587C39.2632 13.3724 39.3074 13.0495 39.3835 12.7266C39.4384 12.4632 39.513 12.2027 39.5906 11.9438C39.6592 11.7124 39.7064 11.4702 39.7932 11.2509C39.9455 10.8763 40.0186 10.4894 40.1465 10.1057C40.2394 9.82848 40.2988 9.53912 40.4009 9.26652C40.4607 9.10601 40.5115 8.94229 40.5531 8.77613C40.6217 8.51875 40.7374 8.28422 40.8258 8.03141C40.8258 8.25985 40.8532 8.48829 40.8456 8.71064C40.8258 9.22692 40.9217 9.73406 40.8943 10.2473C40.8836 10.4453 40.9689 10.6402 40.9689 10.8428C40.9689 11.2783 41.0511 11.7078 41.0801 12.1403C41.0907 12.2926 41.1258 12.4358 41.141 12.5835C41.1608 12.7632 40.9887 12.818 40.8897 12.8881C40.5988 13.0784 40.2897 13.2414 39.9912 13.4196C39.7584 13.5441 39.5345 13.6846 39.3211 13.8399C39.2343 13.91 39.0957 14.0029 39.0165 13.9419C38.9373 13.881 39.0302 13.7409 39.0789 13.6587ZM43.4559 20.9064C43.4269 20.949 43.3858 20.9216 43.3493 20.9064C42.7782 20.6871 42.1994 20.4952 41.6162 20.3139C40.8166 20.0672 40.0293 19.787 39.216 19.5875C38.4028 19.388 37.6291 19.1732 36.8356 18.9783C36.7199 18.9479 36.7412 18.9098 36.796 18.8458C36.8517 18.788 36.9252 18.7504 37.0047 18.7392C37.6401 18.5627 38.2629 18.3434 38.8688 18.0828C39.3546 17.8925 39.8328 17.6732 40.3019 17.434C40.509 17.329 40.7359 17.23 40.9552 17.1295C41.2615 17.0077 41.5545 16.8546 41.8294 16.6726C41.8421 16.6651 41.8553 16.6585 41.869 16.6528C41.8899 16.6532 41.9099 16.6609 41.9258 16.6745C41.9416 16.6881 41.9522 16.7068 41.9558 16.7274C41.9839 16.7939 42.0078 16.862 42.0274 16.9315C42.0563 17.2467 42.2314 17.5163 42.2954 17.8117C42.3594 18.1072 42.4827 18.3874 42.5619 18.6798C42.6813 19.048 42.8217 19.409 42.9822 19.7611C43.0949 20.0444 43.2107 20.3261 43.3203 20.6109C43.3514 20.6767 43.3886 20.7395 43.4315 20.7982C43.4467 20.8287 43.4802 20.8622 43.4559 20.9064ZM62.4165 12.0291C62.2642 12.9962 61.4662 13.118 60.6895 13.118H60.3605L60.7062 10.9067H61.0702C61.8819 10.9098 62.5718 11.0301 62.4165 12.0291Z" fill="white"/>
<path d="M32.634 30.1399C32.4543 30.5343 32.2289 30.9013 32.0873 31.3156C31.9995 31.5165 31.9797 31.7405 32.0309 31.9537C32.049 32.0063 32.0788 32.0541 32.1181 32.0934C32.1575 32.1327 32.2052 32.1625 32.2578 32.1806C32.3665 32.2103 32.4806 32.2146 32.5912 32.1932C32.7019 32.1718 32.8061 32.1253 32.8959 32.0572C33.0466 31.9498 33.1828 31.8234 33.301 31.6811C33.3391 31.6354 33.3483 31.6065 33.3665 31.5882C33.3665 31.5807 33.3682 31.5733 33.3717 31.5667C33.3751 31.56 33.3802 31.5543 33.3863 31.5501L33.8828 30.4566L33.9955 30.2114C34.0195 30.1637 34.0541 30.1221 34.0966 30.0896C34.139 30.0572 34.1883 30.0348 34.2407 30.0241H34.2498C34.2498 30.0241 34.3625 30.0515 34.3534 30.117C34.3411 30.1666 34.3222 30.2142 34.297 30.2587C34.1554 30.5404 34.0336 30.8221 33.9011 31.1054C33.8265 31.2745 33.7488 31.4526 33.6665 31.6217C33.6376 31.678 33.6193 31.6978 33.6102 31.7252C33.6011 31.7527 33.6011 31.7542 33.5904 31.7542C33.4686 32.0359 33.3559 32.3283 33.2142 32.5903C33.0306 32.9624 32.7593 33.2843 32.4237 33.5284C32.0882 33.7725 31.6983 33.9313 31.2877 33.9914C31.0867 34.0207 30.882 33.974 30.7136 33.8604C30.6664 33.8132 30.5917 33.7569 30.6009 33.6822C30.6084 33.6182 30.636 33.5581 30.6798 33.5108C30.7236 33.4634 30.7813 33.4312 30.8445 33.4188C30.8747 33.4148 30.9053 33.4169 30.9346 33.425C30.9639 33.4332 30.9913 33.4471 31.0151 33.466C31.1164 33.5372 31.2271 33.5941 31.3441 33.635C31.4537 33.6724 31.5726 33.6724 31.6822 33.635C32.0767 33.5187 32.4189 33.2696 32.6507 32.9299C32.8054 32.7013 32.9439 32.4621 33.065 32.2141C32.9423 32.3147 32.8059 32.3973 32.6599 32.4593C32.5448 32.5034 32.4209 32.5196 32.2984 32.5066C32.1758 32.4936 32.0581 32.4519 31.9548 32.3847C31.8612 32.3288 31.783 32.2506 31.7272 32.157C31.6714 32.0634 31.6397 31.9575 31.6349 31.8486C31.67 31.484 31.7894 31.1326 31.9837 30.8221C32.0857 30.6348 32.1619 30.4368 32.2654 30.2495C32.2964 30.1764 32.3452 30.1122 32.4075 30.063C32.4698 30.0137 32.5435 29.981 32.6218 29.9678C32.6391 29.9927 32.6494 30.0219 32.6515 30.0521C32.6537 30.0824 32.6476 30.1127 32.634 30.1399Z" fill="white"/>
<path d="M35.9237 29.98C35.9419 29.98 35.9511 29.9891 35.9892 30.0074C36.6379 30.0744 36.7232 30.9212 36.4217 31.4648C36.1582 32.0481 35.4257 32.5461 34.6916 32.406C34.0139 32.2461 34.0048 31.4923 34.2774 30.9577C34.4905 30.5551 34.8462 30.2466 35.2749 30.0927L35.2658 30.0744C35.2749 30.0744 35.2749 30.0744 35.284 30.0637L35.2932 30.0835C35.4264 30.0225 35.5701 29.9873 35.7166 29.98H35.9237ZM35.0206 30.5526C34.7007 30.7597 34.3718 31.2029 34.4281 31.6446C34.4322 31.7394 34.4629 31.8311 34.5168 31.9093C34.5707 31.9874 34.6455 32.0487 34.7327 32.0862C35.0373 32.2172 35.4196 32.039 35.6724 31.8608C36.0013 31.6537 36.3318 31.174 36.2648 30.6851C36.2596 30.6068 36.2334 30.5314 36.1889 30.4668C36.1444 30.4022 36.0833 30.3508 36.012 30.3181C35.9331 30.2914 35.8501 30.2785 35.7668 30.28C35.4971 30.2977 35.2382 30.3923 35.0206 30.5526Z" fill="white"/>
<path d="M37.739 30.1018C37.7389 30.1594 37.7292 30.2165 37.7101 30.2708C37.6065 30.5069 37.4664 30.7277 37.372 30.976C37.2799 31.1645 37.2015 31.3594 37.1375 31.5592C37.1095 31.6422 37.1016 31.7307 37.1146 31.8173C37.1276 31.9039 37.161 31.9861 37.2121 32.0572C37.2625 32.1201 37.3317 32.1651 37.4095 32.1856C37.4874 32.2062 37.5698 32.2012 37.6446 32.1715C37.8972 32.0738 38.1227 31.9171 38.3025 31.7146C38.6787 31.2729 38.9117 30.7369 39.1767 30.2282C39.1873 30.2008 39.2056 30.1718 39.2148 30.1444C39.2437 30.0789 39.2802 30.0409 39.3473 30.0409C39.3665 30.0395 39.3858 30.0427 39.4036 30.05C39.4874 30.0683 39.4965 30.1444 39.46 30.2282C39.3183 30.548 39.1554 30.8678 39.0274 31.2074C38.9894 31.3201 38.933 31.4237 38.8949 31.5273C38.8631 31.6279 38.8595 31.7354 38.8844 31.8379C38.9094 31.9405 38.962 32.0343 39.0366 32.109C39.0904 32.1517 39.1553 32.1779 39.2236 32.1847C39.292 32.1914 39.3608 32.1784 39.4219 32.1471C39.5837 32.0671 39.7253 31.9515 39.8361 31.809C39.8925 31.7237 39.929 31.6674 39.9397 31.6857C39.9503 31.7039 39.9488 31.7054 39.958 31.7054C39.9671 31.7054 39.958 31.7146 39.9671 31.7237C39.9854 31.7709 40.0524 31.809 40.0524 31.8654C40.0472 31.9241 40.0312 31.9814 40.0052 32.0344C39.9259 32.1334 39.8342 32.222 39.7326 32.2979C39.6254 32.3791 39.5012 32.435 39.3693 32.4613C39.2374 32.4877 39.1013 32.4839 38.9711 32.4502C38.8369 32.3974 38.7174 32.3134 38.6223 32.205C38.566 32.1486 38.5279 32.0451 38.4244 32.0451C38.2553 32.0542 38.1335 32.1867 38.0025 32.2796C37.928 32.3432 37.8415 32.3914 37.7482 32.4212C37.6482 32.4627 37.5398 32.48 37.4319 32.4718C37.3239 32.4636 37.2194 32.4301 37.1268 32.374C37.0327 32.3277 36.9526 32.2571 36.8948 32.1696C36.837 32.0821 36.8035 31.9808 36.7979 31.876C36.8136 31.5515 36.9071 31.2355 37.0705 30.9546C37.203 30.7094 37.3065 30.446 37.4466 30.2114C37.4797 30.1456 37.5331 30.0922 37.5989 30.0591C37.672 30.0074 37.739 30.0454 37.739 30.1018Z" fill="white"/>
<path d="M42.0762 30.1399C42.1814 30.2387 42.2572 30.3647 42.2954 30.5039C42.3335 30.6431 42.3325 30.7901 42.2925 30.9287C42.2846 30.9412 42.2735 30.9513 42.2604 30.958C42.2473 30.9647 42.2326 30.9677 42.2179 30.9668C42.1524 30.9668 42.1143 30.9577 42.058 30.9577C42.058 30.9577 41.9925 30.9105 42.0016 30.8831C42.0108 30.8556 42.0108 30.8541 42.0016 30.8541L42.0199 30.7506C42.0345 30.682 42.0318 30.611 42.0121 30.5437C41.9924 30.4765 41.9564 30.4151 41.9072 30.3653C41.8664 30.3287 41.8176 30.3019 41.7648 30.2871C41.712 30.2724 41.6565 30.2699 41.6026 30.28C41.4054 30.3071 41.2197 30.3888 41.0665 30.516C40.8005 30.7347 40.588 31.0113 40.4452 31.3247C40.2381 31.6628 40.0979 32.0481 39.9 32.3908C39.8924 32.4173 39.8764 32.4407 39.8545 32.4575C39.8325 32.4742 39.8057 32.4834 39.7781 32.4837C39.7473 32.4867 39.7163 32.4832 39.6869 32.4735C39.6575 32.4638 39.6305 32.4481 39.6076 32.4273C39.5924 32.4013 39.5853 32.3713 39.5872 32.3412C39.5891 32.3111 39.5999 32.2822 39.6182 32.2583C39.8908 31.7039 40.2106 31.177 40.4741 30.6226C40.5487 30.4703 40.6051 30.283 40.7558 30.1795C40.7703 30.1673 40.7874 30.1587 40.8058 30.1544C40.8242 30.1501 40.8433 30.1503 40.8616 30.1549C40.88 30.1595 40.8969 30.1685 40.9111 30.1809C40.9253 30.1934 40.9363 30.2091 40.9432 30.2267C40.963 30.2465 40.963 30.312 41.0102 30.312C41.0574 30.312 41.0848 30.2465 41.132 30.2267C41.2409 30.1548 41.3573 30.095 41.4792 30.0485C41.5788 30.0238 41.6814 30.0141 41.7838 30.0196C41.8927 30.0226 41.9967 30.0654 42.0762 30.1399Z" fill="white"/>
<path d="M46.8886 29.971C47.0577 29.9893 47.2267 30.0456 47.3958 30.0746C47.4513 30.0896 47.5089 30.0958 47.5663 30.0928L47.7186 30.0273C47.7309 30.0187 47.7451 30.0132 47.7599 30.0114C47.7748 30.0095 47.7899 30.0113 47.8039 30.0167C47.8785 30.0365 47.8785 30.1111 47.8511 30.1873C47.7384 30.4781 47.5785 30.7599 47.446 31.0523L47.277 31.4467C47.2345 31.5325 47.2109 31.6263 47.2078 31.7219C47.2046 31.8175 47.222 31.9127 47.2587 32.0011C47.2812 32.0364 47.3116 32.0659 47.3476 32.0874C47.3836 32.1088 47.4241 32.1215 47.4658 32.1244C47.5804 32.1371 47.6962 32.1194 47.8018 32.0731C47.9074 32.0269 47.999 31.9537 48.0674 31.861C48.0689 31.8426 48.0746 31.8249 48.084 31.8091C48.0935 31.7933 48.1064 31.7799 48.1219 31.7699C48.1373 31.7599 48.1549 31.7536 48.1731 31.7514C48.1914 31.7492 48.2099 31.7513 48.2273 31.7574C48.2745 31.7848 48.2745 31.861 48.2745 31.9097C48.2631 31.9948 48.2303 32.0757 48.1792 32.1447C48.1281 32.2137 48.0602 32.2685 47.9821 32.3041C47.8969 32.3701 47.7971 32.4148 47.6912 32.4344C47.5852 32.454 47.4761 32.448 47.3729 32.4168C47.2616 32.3912 47.1597 32.3347 47.0789 32.254C46.9981 32.1732 46.9417 32.0713 46.916 31.96C46.7744 32.0361 46.6328 32.1305 46.4926 32.2143C46.3891 32.2615 46.2855 32.3376 46.1728 32.3833C46.0589 32.4332 45.9349 32.4559 45.8106 32.4496C45.6864 32.4432 45.5653 32.408 45.457 32.3468C45.3708 32.2818 45.3006 32.1979 45.2517 32.1015C45.2029 32.0052 45.1768 31.8989 45.1753 31.7909C45.1737 31.3315 45.3452 30.8883 45.6557 30.5496C45.9661 30.211 46.3927 30.0017 46.8505 29.9634L46.8886 29.971ZM46.8414 30.2436C46.6227 30.2529 46.4113 30.3248 46.2322 30.4507C45.8716 30.6616 45.608 31.0056 45.4982 31.4087C45.4572 31.5578 45.4541 31.7148 45.489 31.8655C45.5153 31.9536 45.5704 32.0302 45.6456 32.0829C45.7208 32.1357 45.8116 32.1616 45.9033 32.1564C46.057 32.1386 46.2048 32.0865 46.3358 32.0041C46.7246 31.7482 47.0213 31.3747 47.1825 30.9381C47.2471 30.814 47.267 30.6715 47.2389 30.5345C47.2246 30.4621 47.1872 30.3964 47.1322 30.3472C47.0773 30.298 47.0078 30.2681 46.9343 30.2619L46.8414 30.2436Z" fill="white"/>
<path d="M51.2613 28.8987C51.0922 29.3114 50.8958 29.7074 50.7069 30.1018C50.6281 30.3046 50.537 30.5025 50.4343 30.6943C50.378 30.7887 50.3399 30.9014 50.282 30.9989C50.2257 31.139 50.1602 31.2715 50.1038 31.4131C50.0629 31.4979 50.0409 31.5906 50.0394 31.6847C50.0378 31.7788 50.0567 31.8722 50.0947 31.9583C50.1143 31.9967 50.1439 32.0291 50.1803 32.0521C50.2168 32.0752 50.2587 32.088 50.3018 32.0893C50.4151 32.1025 50.5299 32.085 50.6341 32.0386C50.7383 31.9923 50.8282 31.9188 50.8942 31.8258C50.9021 31.796 50.9188 31.7692 50.9422 31.7491C50.9656 31.729 50.9945 31.7164 51.0252 31.7131C51.0907 31.7223 51.0998 31.7984 51.1105 31.8456C51.1029 31.9354 51.0719 32.0216 51.0206 32.0956C50.9693 32.1696 50.8995 32.2289 50.8181 32.2675C50.7321 32.336 50.6306 32.3823 50.5225 32.4022C50.4144 32.4221 50.303 32.4151 50.1983 32.3817C50.0894 32.3538 49.9905 32.2964 49.9123 32.2157C49.834 32.1351 49.7796 32.0344 49.7551 31.9248C49.5678 32.0192 49.3987 32.1411 49.2099 32.2294C49.1094 32.3026 48.995 32.3546 48.8738 32.3821C48.7526 32.4096 48.627 32.412 48.5047 32.3893C48.4125 32.3699 48.326 32.3291 48.2525 32.2701C48.1789 32.2111 48.1203 32.1356 48.0814 32.0497C47.9952 31.8412 47.9787 31.6104 48.0342 31.3918C48.0922 31.1331 48.2022 30.8889 48.3574 30.674C48.5127 30.459 48.7099 30.2779 48.9373 30.1414C49.1762 29.9998 49.45 29.9281 49.7277 29.9343C49.8876 29.9526 50.0475 29.9998 50.2074 30.0287C50.2629 30.0423 50.3195 30.0515 50.3764 30.0562C50.4122 30.0525 50.4471 30.0432 50.48 30.0287L50.809 29.3419C50.8744 29.2003 50.9308 29.051 51.0069 28.9094C51.0333 28.861 51.0709 28.8197 51.1164 28.7887C51.162 28.7577 51.2142 28.738 51.2689 28.7312C51.2993 28.7388 51.2993 28.8043 51.2613 28.8987ZM49.6728 30.2145C49.4589 30.2217 49.2522 30.294 49.0804 30.4217C48.717 30.6323 48.4503 30.9766 48.3372 31.3811C48.2999 31.5308 48.2968 31.687 48.3281 31.838C48.356 31.9248 48.4114 32.0002 48.4858 32.0529C48.5602 32.1056 48.6496 32.1328 48.7408 32.1304C48.9034 32.1065 49.0592 32.0483 49.1977 31.9598C49.5818 31.7016 49.8745 31.3284 50.0338 30.8938C50.0956 30.7682 50.1123 30.6251 50.081 30.4887C50.066 30.4147 50.026 30.3482 49.9678 30.3003C49.9096 30.2523 49.8366 30.2258 49.7612 30.2252L49.6728 30.2145Z" fill="white"/>
<path d="M51.8232 30.0166C51.8597 30.0166 51.8886 30.0166 51.8978 30.0547C51.8969 30.117 51.8807 30.1783 51.8506 30.2329C51.6632 30.6669 51.3937 31.0613 51.2962 31.5121C51.2638 31.6043 51.2513 31.7023 51.2594 31.7997C51.2675 31.8971 51.2962 31.9916 51.3434 32.0771C51.3939 32.1377 51.4603 32.1829 51.5351 32.2077C51.6099 32.2325 51.6902 32.2358 51.7668 32.2173C52.0441 32.1417 52.2887 31.9768 52.4628 31.7482C52.8283 31.305 53.0171 30.7507 53.2715 30.2435C53.293 30.2074 53.3118 30.1697 53.3278 30.1308C53.3378 30.1047 53.3541 30.0815 53.3754 30.0634C53.3967 30.0453 53.4223 30.0329 53.4497 30.0273C53.4971 30.0189 53.546 30.0253 53.5898 30.0455C53.6063 30.0536 53.6209 30.0652 53.6325 30.0795C53.644 30.0938 53.6524 30.1104 53.6569 30.1282C53.6614 30.1461 53.6619 30.1647 53.6585 30.1827C53.655 30.2008 53.6477 30.2179 53.637 30.2329C53.5624 30.4217 53.4771 30.5999 53.3842 30.7887C53.4002 30.8128 53.4191 30.8348 53.4405 30.8542C53.4784 30.8876 53.5239 30.9111 53.5731 30.9225C53.6223 30.934 53.6735 30.933 53.7223 30.9197C53.9386 30.859 54.1277 30.7263 54.2583 30.5435C54.3055 30.4963 54.3238 30.4126 54.4 30.4034C54.4388 30.4056 54.4753 30.4225 54.502 30.4506C54.5166 30.4669 54.5263 30.4871 54.5298 30.5087C54.5333 30.5303 54.5305 30.5524 54.5218 30.5725C54.5401 30.5999 54.5127 30.6197 54.4929 30.638C54.4498 30.6959 54.3985 30.7472 54.3406 30.7903C54.1902 30.9608 53.9989 31.0903 53.7847 31.1664C53.6941 31.1958 53.5972 31.2 53.5043 31.1785C53.4115 31.1571 53.3263 31.1108 53.2578 31.0446L53.2486 31.0629C53.1359 31.27 53.0324 31.4771 52.9197 31.672C52.7091 32.0142 52.4017 32.2861 52.0364 32.4533C51.9259 32.5029 51.8067 32.5301 51.6856 32.5332C51.5646 32.5364 51.4441 32.5154 51.3312 32.4716C51.2254 32.4323 51.132 32.3654 51.0608 32.2778C50.9895 32.1903 50.943 32.0852 50.9261 31.9736C50.9123 31.5883 51.0067 31.2068 51.1987 30.8725C51.3023 30.6669 51.3967 30.4506 51.5186 30.2527C51.584 30.1491 51.6709 30.0273 51.8094 30.0166H51.8232Z" fill="white"/>
<path d="M55.4661 29.9708C55.648 29.9558 55.8296 30.0018 55.9824 30.1018C56.1803 30.2617 56.2367 30.5343 56.255 30.7688C56.2665 30.829 56.2659 30.8909 56.2531 30.9508C56.2403 31.0107 56.2155 31.0674 56.1803 31.1176C56.1712 31.1176 56.1621 31.1267 56.1514 31.1359C56.0986 31.1601 56.0403 31.1701 55.9824 31.1648L54.4411 31.1739C54.3846 31.1648 54.3271 31.1648 54.2706 31.1739C54.2419 31.179 54.2147 31.1901 54.1905 31.2063C54.1664 31.2226 54.1459 31.2437 54.1305 31.2684C54.0736 31.3713 54.0537 31.4906 54.0741 31.6065C54.0822 31.6937 54.1112 31.7778 54.1586 31.8515C54.2061 31.9252 54.2706 31.9864 54.3467 32.0298C54.4519 32.0769 54.566 32.1005 54.6812 32.0989C54.7965 32.0973 54.9099 32.0706 55.0138 32.0207C55.2537 31.9256 55.4691 31.7778 55.6443 31.5882C55.6443 31.5592 55.6625 31.5684 55.6717 31.5882C55.6808 31.608 55.7189 31.541 55.7387 31.5501L55.7661 31.579L55.795 31.6065C55.8089 31.6177 55.8203 31.6317 55.8284 31.6476C55.8365 31.6635 55.8412 31.681 55.842 31.6988C55.8429 31.7167 55.84 31.7345 55.8334 31.7511C55.8269 31.7677 55.8169 31.7828 55.8042 31.7953C55.7191 31.889 55.6247 31.9737 55.5224 32.0481C55.2003 32.2844 54.7988 32.3861 54.4031 32.3314C54.3058 32.3185 54.2125 32.2845 54.1297 32.2319C54.0468 32.1793 53.9764 32.1093 53.9233 32.0268C53.8116 31.8161 53.7812 31.5716 53.8381 31.3399C53.9049 30.9703 54.1021 30.6368 54.3939 30.4003C54.6715 30.1553 55.0209 30.0067 55.3899 29.9769L55.4661 29.9708ZM55.1737 30.2434C54.8936 30.323 54.638 30.4717 54.4305 30.6759C54.4134 30.6929 54.4006 30.7137 54.3931 30.7365C54.3856 30.7594 54.3836 30.7837 54.3873 30.8075C54.3911 30.8313 54.4004 30.8538 54.4145 30.8733C54.4286 30.8928 54.4471 30.9087 54.4685 30.9196C54.9665 30.9287 55.4661 30.9196 55.9641 30.9287C56.0021 30.7461 55.9717 30.5559 55.8788 30.3942C55.8301 30.3293 55.7657 30.2779 55.6916 30.2448C55.6175 30.2118 55.5362 30.1982 55.4554 30.2053C55.3604 30.2084 55.266 30.2211 55.1737 30.2434Z" fill="white"/>
<path d="M58.6244 29.9801C58.7148 30.0548 58.7859 30.15 58.8317 30.2579C58.8776 30.3658 58.8968 30.4831 58.8878 30.6C58.8513 30.9046 58.7005 31.1741 58.6244 31.465C58.5675 31.612 58.5675 31.7749 58.6244 31.9219C58.6551 31.979 58.7015 32.0262 58.7582 32.0578C58.8149 32.0893 58.8794 32.104 58.9442 32.1001C59.1333 32.0635 59.306 31.9681 59.4376 31.8275C59.494 31.7803 59.5412 31.7239 59.5899 31.6752C59.6661 31.5731 59.759 31.5823 59.7696 31.695C59.7764 31.7692 59.7632 31.8438 59.7315 31.9112C59.6518 32.0324 59.5482 32.1361 59.427 32.2158C59.2351 32.3581 58.9979 32.4253 58.7599 32.4047C58.662 32.3866 58.5706 32.3432 58.4947 32.2788C58.4188 32.2144 58.3611 32.1313 58.3274 32.0376C58.282 31.89 58.2668 31.7348 58.2827 31.5812C58.2987 31.4276 58.3455 31.2788 58.4203 31.1437C58.4873 30.9274 58.6091 30.7112 58.5909 30.4766C58.5932 30.391 58.5632 30.3076 58.5067 30.2433C58.4502 30.1789 58.3715 30.1382 58.2863 30.1294C58.0466 30.13 57.8144 30.2128 57.6284 30.3639C57.3683 30.5545 57.1638 30.8111 57.0359 31.1071L56.9598 31.2594C56.7633 31.5792 56.6552 31.9265 56.4618 32.2463C56.4523 32.271 56.4357 32.2924 56.414 32.3076C56.3922 32.3228 56.3665 32.3312 56.34 32.3316C56.3085 32.3348 56.2766 32.3305 56.2472 32.3188C56.2178 32.3071 56.1916 32.2885 56.1709 32.2646C56.1328 32.2173 56.1511 32.161 56.1892 32.1046C56.4618 31.5503 56.7725 31.0234 57.0359 30.469C57.0907 30.3024 57.1841 30.151 57.3085 30.0274C57.3319 30.0068 57.362 29.9955 57.3931 29.9955C57.4242 29.9955 57.4542 30.0068 57.4776 30.0274C57.5157 30.0548 57.5157 30.102 57.5431 30.14C57.5449 30.1461 57.5488 30.1513 57.5541 30.1546C57.5594 30.158 57.5658 30.1593 57.572 30.1583C57.6284 30.1492 57.6558 30.102 57.703 30.0639C57.7974 30.0076 57.8812 29.9603 57.9756 29.9116C58.0906 29.8722 58.2122 29.8562 58.3335 29.8644C58.4414 29.8656 58.5451 29.9068 58.6244 29.9801Z" fill="white"/>
<path d="M61.0233 29.0952C60.9288 29.3115 60.8451 29.5277 60.7415 29.7348C60.6852 29.8475 60.638 29.9709 60.5816 30.0927H60.9761C60.995 30.0906 61.0143 30.0927 61.0323 30.099C61.0504 30.1052 61.0668 30.1155 61.0804 30.1289C61.094 30.1424 61.1044 30.1587 61.1108 30.1766C61.1173 30.1946 61.1196 30.2138 61.1177 30.2328V30.309C61.1177 30.3364 61.0979 30.3364 61.0796 30.3364H60.8253C60.7417 30.3498 60.6569 30.3534 60.5725 30.3471C60.5344 30.3562 60.4963 30.3364 60.4689 30.3471C60.4217 30.3943 60.4126 30.4689 60.3745 30.5253C60.2099 30.8171 60.0776 31.1261 59.9801 31.4466C59.9493 31.5362 59.9384 31.6313 59.9481 31.7255C59.9579 31.8196 59.988 31.9105 60.0364 31.9918C60.0922 32.05 60.1627 32.0921 60.2405 32.1135C60.3182 32.135 60.4003 32.135 60.4781 32.1137C60.7107 32.0549 60.9184 31.9231 61.0705 31.7375C61.148 31.6613 61.2202 31.5799 61.2867 31.4938C61.3013 31.4775 61.3195 31.4647 61.3398 31.4565C61.3602 31.4484 61.3821 31.4451 61.404 31.4468C61.4258 31.4486 61.447 31.4554 61.4657 31.4668C61.4845 31.4781 61.5004 31.4936 61.5121 31.5121C61.5237 31.5228 61.5324 31.5362 61.5374 31.5511C61.5425 31.566 61.5437 31.5819 61.5411 31.5974C61.5433 31.6143 61.5419 31.6315 61.5369 31.6478C61.5319 31.6641 61.5234 31.6791 61.5121 31.6918C61.4935 31.7331 61.4683 31.7712 61.4375 31.8045C61.4162 31.8283 61.3903 31.8474 61.3614 31.8609C61.1268 32.068 60.9045 32.3025 60.609 32.3969C60.4641 32.457 60.3032 32.4666 60.1521 32.4244C60.0043 32.3847 59.8724 32.3001 59.7748 32.1822C59.6771 32.0644 59.6184 31.9191 59.6069 31.7665C59.6069 31.3994 59.776 31.0613 59.9359 30.7415C59.9922 30.6197 60.0577 30.4963 60.1049 30.3653C60.104 30.3584 60.1008 30.352 60.0958 30.3471C60.0455 30.337 59.9938 30.337 59.9435 30.3471C59.9182 30.3489 59.8927 30.3452 59.8689 30.3364H59.7745C59.7555 30.3386 59.7362 30.3364 59.7182 30.3302C59.7001 30.3239 59.6837 30.3137 59.6701 30.3002C59.6565 30.2868 59.6461 30.2705 59.6397 30.2525C59.6332 30.2345 59.6309 30.2153 59.6328 30.1963C59.6328 30.1308 59.68 30.0927 59.7745 30.0927H60.2542C60.3943 29.8019 60.5177 29.5095 60.6578 29.2277C60.7141 29.0952 60.8177 28.946 60.9624 28.9353C60.9874 28.9528 61.0065 28.9774 61.0174 29.0059C61.0283 29.0344 61.0303 29.0655 61.0233 29.0952Z" fill="white"/>
<path d="M62.1897 30.1018C62.1896 30.1594 62.1798 30.2165 62.1608 30.2708C62.0572 30.5069 61.9171 30.7277 61.8227 30.976C61.7306 31.1645 61.6522 31.3594 61.5881 31.5592C61.5601 31.6422 61.5523 31.7307 61.5653 31.8173C61.5783 31.9039 61.6117 31.9861 61.6628 32.0572C61.7131 32.1201 61.7824 32.1651 61.8602 32.1856C61.9381 32.2062 62.0205 32.2012 62.0953 32.1715C62.3479 32.0738 62.5734 31.9171 62.7532 31.7146C63.1294 31.2729 63.3624 30.7369 63.6289 30.2282C63.638 30.2008 63.6563 30.1718 63.6654 30.1444C63.6944 30.0789 63.7309 30.0409 63.7979 30.0409C63.8172 30.0395 63.8365 30.0427 63.8543 30.05C63.938 30.0683 63.9472 30.1444 63.9106 30.2282C63.769 30.548 63.606 30.8678 63.4781 31.2074C63.44 31.3201 63.3837 31.4237 63.3456 31.5273C63.3138 31.6279 63.3101 31.7354 63.3351 31.8379C63.3601 31.9405 63.4127 32.0343 63.4873 32.109C63.5411 32.1517 63.606 32.1779 63.6743 32.1847C63.7426 32.1914 63.8114 32.1784 63.8726 32.1471C64.0344 32.0671 64.176 31.9515 64.2868 31.809C64.3431 31.7237 64.3797 31.6674 64.3904 31.6857C64.401 31.7039 64.3995 31.7054 64.4086 31.7054C64.4178 31.7054 64.4086 31.7146 64.4178 31.7237C64.4376 31.7709 64.5031 31.809 64.5031 31.8654C64.4987 31.9243 64.4826 31.9817 64.4558 32.0344C64.3769 32.1338 64.2853 32.2224 64.1832 32.2979C64.076 32.3791 63.9518 32.435 63.82 32.4613C63.6881 32.4877 63.552 32.4839 63.4218 32.4502C63.2876 32.3974 63.168 32.3134 63.073 32.205C63.0167 32.1486 62.9786 32.0451 62.8766 32.0451C62.706 32.0542 62.5842 32.1867 62.4532 32.2796C62.3786 32.3432 62.2922 32.3914 62.1988 32.4212C62.0988 32.4627 61.9905 32.48 61.8825 32.4718C61.7746 32.4636 61.6701 32.4301 61.5775 32.374C61.4834 32.3277 61.4033 32.2571 61.3455 32.1696C61.2877 32.0821 61.2542 31.9808 61.2485 31.876C61.2643 31.5515 61.3578 31.2355 61.5211 30.9546C61.6536 30.7094 61.7572 30.446 61.8973 30.2114C61.9304 30.1456 61.9838 30.0922 62.0496 30.0591C62.1227 30.0074 62.1897 30.0454 62.1897 30.1018Z" fill="white"/>
<path d="M66.5346 30.1399C66.6119 30.2016 66.6741 30.2803 66.7163 30.3698C66.7585 30.4592 66.7797 30.5572 66.7783 30.6561C66.7879 30.7479 66.7786 30.8407 66.7509 30.9287C66.7425 30.9411 66.7311 30.9511 66.7178 30.9578C66.7045 30.9644 66.6896 30.9675 66.6747 30.9668C66.6092 30.9668 66.5712 30.9577 66.5224 30.9577C66.5224 30.9577 66.457 30.9105 66.4661 30.8831C66.4752 30.8556 66.4752 30.8541 66.4661 30.8541L66.4859 30.7506C66.5001 30.6819 66.4971 30.6108 66.4772 30.5436C66.4573 30.4763 66.421 30.4151 66.3717 30.3653C66.3308 30.3287 66.2821 30.3019 66.2293 30.2871C66.1765 30.2724 66.121 30.2699 66.0671 30.28C65.8699 30.3071 65.6842 30.3888 65.531 30.516C65.265 30.7347 65.0524 31.0113 64.9096 31.3247C64.7025 31.6628 64.5624 32.0481 64.3644 32.3908C64.3569 32.4173 64.3409 32.4407 64.319 32.4575C64.297 32.4742 64.2702 32.4834 64.2426 32.4837C64.212 32.4868 64.1812 32.4834 64.152 32.4737C64.1229 32.464 64.0961 32.4482 64.0736 32.4273C64.0582 32.4014 64.0508 32.3715 64.0525 32.3414C64.0541 32.3113 64.0646 32.2824 64.0827 32.2583C64.3553 31.7039 64.6751 31.177 64.9386 30.6226C65.0132 30.4703 65.0696 30.283 65.2203 30.1795C65.2347 30.1673 65.2519 30.1587 65.2703 30.1544C65.2887 30.1501 65.3078 30.1503 65.3261 30.1549C65.3444 30.1595 65.3614 30.1685 65.3756 30.1809C65.3897 30.1934 65.4007 30.2091 65.4077 30.2267C65.4275 30.2465 65.4275 30.312 65.4747 30.312C65.5219 30.312 65.5493 30.2465 65.5965 30.2267C65.7054 30.1548 65.8218 30.095 65.9437 30.0485C66.0433 30.0238 66.1459 30.0141 66.2483 30.0196C66.3549 30.025 66.4562 30.0676 66.5346 30.1399Z" fill="white"/>
<path d="M68.5281 29.9708C68.71 29.9558 68.8917 30.0018 69.0444 30.1018C69.2424 30.2617 69.2987 30.5343 69.317 30.7688C69.3286 30.829 69.3279 30.8909 69.3151 30.9508C69.3023 31.0107 69.2776 31.0674 69.2424 31.1176C69.2332 31.1176 69.2241 31.1267 69.215 31.1359C69.1616 31.1601 69.1028 31.1701 69.0444 31.1648L67.5032 31.1739C67.4472 31.1648 67.3901 31.1648 67.3341 31.1739C67.3053 31.179 67.2778 31.19 67.2534 31.2063C67.229 31.2225 67.2083 31.2437 67.1925 31.2684C67.1356 31.3713 67.1158 31.4906 67.1362 31.6065C67.1442 31.6937 67.1732 31.7778 67.2206 31.8515C67.2681 31.9252 67.3326 31.9864 67.4088 32.0298C67.5139 32.0769 67.6281 32.1005 67.7433 32.0989C67.8585 32.0973 67.972 32.0706 68.0758 32.0207C68.3157 31.9256 68.5312 31.7778 68.7063 31.5882C68.7063 31.5592 68.7246 31.5684 68.7352 31.5882C68.7459 31.608 68.7809 31.541 68.8007 31.5501L68.8281 31.579L68.8571 31.6065C68.871 31.6177 68.8824 31.6317 68.8905 31.6476C68.8986 31.6635 68.9032 31.681 68.9041 31.6988C68.9049 31.7167 68.902 31.7345 68.8955 31.7511C68.889 31.7677 68.879 31.7828 68.8662 31.7953C68.7812 31.889 68.6868 31.9737 68.5845 32.0481C68.2624 32.2844 67.8609 32.3861 67.4651 32.3314C67.3678 32.3185 67.2745 32.2845 67.1917 32.2319C67.1089 32.1793 67.0385 32.1093 66.9854 32.0268C66.874 31.8159 66.8442 31.5714 66.9016 31.3399C66.9672 30.9702 67.1641 30.6365 67.456 30.4003C67.7337 30.1555 68.083 30.007 68.452 29.9769L68.5281 29.9708ZM68.2357 30.2434C67.9559 30.3227 67.7008 30.4715 67.494 30.6759C67.4769 30.6928 67.464 30.7135 67.4564 30.7363C67.4488 30.759 67.4467 30.7833 67.4502 30.8071C67.4538 30.8308 67.463 30.8534 67.4769 30.873C67.4909 30.8925 67.5093 30.9085 67.5306 30.9196C68.0286 30.9287 68.5281 30.9196 69.0261 30.9287C69.0656 30.7462 69.0352 30.5554 68.9408 30.3942C68.8925 30.3293 68.8284 30.2779 68.7545 30.2448C68.6807 30.2118 68.5996 30.1982 68.519 30.2053C68.4235 30.2083 68.3286 30.221 68.2357 30.2434Z" fill="white"/>
</svg>
